<svg xmlns="http://www.w3.org/2000/svg" viewBox="0 0 2379.65 377.79"><defs><style>.cls-1{fill:#333}</style></defs><title>impb text</title><g id="Layer_2" data-name="Layer 2"><g id="Layer_1-2" data-name="Layer 1"><path class="cls-1" d="M94.49 18.29C108.66-2 128.2-5.35 133.6 7.92S78.09 194.47 53.69 268c-21.08 63.52-81.69 17.85-38.5-24.18C34.23 225.32 39 97.68 94.49 18.29zM793.44 290.3C806.9 254.64 843 19.79 899.93 9.19c33.54-6.25-31.59 156.67-8.67 158.93s50.13-172.21 89.27-149c15.28 9-49.3 201.23-43.64 249 4.47 37.76-51.91 33.46-61.24 20.77s49.49-80.84 38.92-89-40.42 91.71-66.25 94.36c-16.57-1.92 27.58-101.55 9.27-96.46s-12.73 86.46-27.65 102.91-43.04 6.92-36.5-10.4zM1422.32 40.05C1401 72.4 1342 299 1368.87 317.36c13.66 9.33 26.78 4.88 40.82-4.63 32.4-21.93-1.91-146.31 18.6-143.41s32.94 25.16 50.66 7.84 26.32-74 32.54-119-67.87-50.45-89.17-18.11zm25.57 82.11c-20.3 14.12-24.18-11.22-18.7-42.79S1459 55.76 1459 55.76s11 4.41 16.15 20.68-6.96 31.56-27.26 45.73zM2103.53 222.44c-30.08-50-66.41-19.86-76.82-31S2094 45.25 2076.85 25.28s-35.46-20.21-47.94-2.62c-17.92 62.23-102.41 247.6-86 277.44s99.78 43.77 128.11 34.15c45.91-15.59 62.59-61.86 32.51-111.81zm-51 82.82c-17 3.58-33.68-12.18-46.39-25.66s-8.06-21.74 5.81-33.76 58.23-10.82 59.3 24.53c-.15 20.68-1.75 31.3-18.76 34.88zM74.82 314c-3-.44-4.1-9.79-4.5-15-4.58-59 30.57-148.14 49.5-144 18.52 4.05 7 94.25 21 96 14.76 1.84 30.41-97.47 42-96 9.79 1.24 21.43 75-16.58 120.94-3.23 3.9-21.61 26.11-34.42 21.55-20.26-7.21-9.6-75.3-18-76.5-10-1.4-29.04 94.47-39 93.01zM259.81 97.53c-18.62 10.58-4.1 55.07-19.8 61.88-9.56 4.14-20.26-10.06-31.35-4.12-6 3.2-10.29 11.29-8.25 16.5 3.76 9.61 26 1.39 33 11.55 5.3 7.73-2.52 19.92-22.28 71-4.65 12-8.21 21.64-4.12 25.58s14.57 1.68 21.45-3.3c26-18.81 4.38-81.77 21.45-88.28 6.6-2.52 11.63 6.2 23.1 3.3 11.32-2.86 20.56-14.92 18.15-20.63-2.89-6.86-20.52.48-26.4-7.43-9.8-13.18 28.08-48.47 18.15-62.7-4.06-5.88-15.72-7.54-23.1-3.35zM370.14 309.94c5.19 7.49 18.64 11.14 26.4 6.6 18.87-11.05.29-68.43 12.38-72.6 7.39-2.55 17.24 17.93 27.23 14.85 6.59-2 10.6-13.5 8.25-21.45-5.46-18.43-40.18-27.81-51.15-17.33-3.79 3.62-3.77 8.76-4.13 14-2.92 43.52-28.73 61.86-18.98 75.93zM457.82 329c-3-.44-4.1-9.79-4.5-15-4.58-59 30.57-148.14 49.5-144 18.52 4.05 7 94.25 21 96 14.76 1.84 30.41-97.47 42-96 9.79 1.24 21.43 75-16.58 120.94-3.23 3.9-21.61 26.11-34.42 21.55-20.26-7.21-9.6-75.3-18-76.5-10-1.4-29.04 94.47-39 93.01zM740.81 114.53c-18.62 10.58-4.1 55.07-19.8 61.88-9.56 4.14-20.26-10.06-31.35-4.12-6 3.2-10.29 11.29-8.25 16.5 3.76 9.61 26 1.39 33 11.55 5.3 7.73-2.52 19.92-22.28 71-4.65 12-8.21 21.64-4.12 25.58s14.57 1.68 21.45-3.3c26-18.81 4.38-81.77 21.45-88.28 6.6-2.52 11.63 6.2 23.1 3.3 11.32-2.86 20.56-14.92 18.15-20.63-2.89-6.86-20.52.48-26.4-7.43-9.8-13.18 28.08-48.47 18.15-62.7-4.06-5.88-15.72-7.54-23.1-3.35zM340.12 208c-24.28-12.23-73.75 16.95-75.9 53.63-1.94 33.16 35.24 64.74 51.15 59.4 9.2-3.09 15.31-19.87 10.73-30.53-6.69-15.56-34.84-14.9-35.48-25.58-.28-4.68 4.92-8.47 5.78-9.08 16.55-11.63 45.9 18.29 57.75 9.9 10.94-7.74 6.15-47.61-14.03-57.74zm-.21 31.36c-2.1 5.41-13.38 6.41-21.33 4-9.44-2.86-18.43-11.82-16.67-16.67 2.32-6.39 24.29-8.37 34 2 .57.58 5.71 6.2 4 10.63zM657.12 218.47c-24.28-12.23-73.75 16.95-75.9 53.63-1.94 33.16 35.24 64.74 51.15 59.4 9.2-3.09 15.31-19.87 10.73-30.53-6.69-15.56-34.84-14.9-35.48-25.58-.28-4.68 4.92-8.47 5.78-9.08 16.55-11.63 45.9 18.29 57.75 9.9 10.94-7.74 6.15-47.57-14.03-57.74zm-.21 31.36c-2.1 5.41-13.38 6.41-21.33 4-9.44-2.86-18.43-11.82-16.67-16.67 2.32-6.39 24.29-8.37 34 2 .57.62 5.71 6.24 4 10.67zM1081.77 177c-32.81 28.39-17.6 117.38 7.5 123 19 4.25 43.21-39.21 61.5-72 9.5-17 22.81-41.35 15-49.5-5.28-5.5-19.05-2.45-28.5 3-32.62 18.81-32.08 76.82-34.5 76.5-2.88-.38 11.45-80.34-6-87-5.6-2.12-12.65 4-15 6zM1191.76 180c-9.29-1.56-15.25 52.06-34.5 111-1.11 3.4-4.06 12.31 0 16.5 4.88 5 17.07.36 18 0 31.11-12.26 29.86-125.25 16.5-127.5zM1199.26 135c-5.62-4.12-23.28 1.88-24 13.5-.57 9.25 9.86 17.87 16.5 16.5 9.52-2 14.14-25.11 7.5-30zM1291.1 194.43c-24.28-12.23-73.75 16.95-75.9 53.63-1.94 33.16 35.24 64.74 51.15 59.4 9.2-3.09 15.31-19.87 10.73-30.53-6.69-15.56-34.84-14.9-35.48-25.58-.28-4.68 4.92-8.47 5.78-9.08 16.55-11.63 45.9 18.29 57.75 9.9 10.94-7.74 6.16-47.57-14.03-57.74zm-.21 31.36c-2.1 5.41-13.38 6.41-21.33 4-9.44-2.86-18.43-11.82-16.67-16.67 2.32-6.39 24.29-8.37 34 2 .58.62 5.72 6.24 4 10.67z"/><path class="cls-1" d="M1007.27 177c-22-2.84-51.25 23.82-55.5 55.5-.47 3.49-3.7 31.06 16.5 51 21.71 21.43 59 22.71 75 7.5 27.63-26.29-.48-109.39-36-114zm-3 85.5c-4.91 2.68-14.67-2.8-18-10.5-5.63-13 8.91-28.32 15-27 7.8 1.7 11.6 32.81 3 37.51zM1512.76 199c-9.29-1.56-15.25 52.06-34.5 111-1.11 3.4-4.06 12.31 0 16.5 4.88 5 17.07.36 18 0 31.11-12.26 29.86-125.25 16.5-127.5zM1520.26 154c-5.62-4.12-23.28 1.88-24 13.5-.57 9.25 9.86 17.87 16.5 16.5 9.52-2 14.14-25.11 7.5-30zM1539.14 299.94c5.19 7.49 18.64 11.14 26.4 6.6 18.87-11.05.29-68.43 12.38-72.6 7.39-2.55 17.24 17.93 27.23 14.85 6.59-2 10.6-13.5 8.25-21.45-5.46-18.43-40.18-27.81-51.15-17.33-3.79 3.62-3.77 8.76-4.13 14-2.92 43.52-28.73 61.86-18.98 75.93zM1684.74 191.51c-19.44-7.66-48.44-3.11-55.5 12-5.17 11.07 1.22 28.27 9 30s11.74-12.65 24-13.5 26.56 12.08 25.5 22.5c-.79 7.79-10 12.46-21 18-24.28 12.27-36.62 7.42-45 18-7.15 9-8.39 25.5-1.5 31.5 14.9 13 65.16-25.33 73.5-15 3.82 4.73-5 14.93 0 21 4.38 5.35 17.2 4.76 24 0 23.26-16.3 12.09-106.72-33-124.5zM1635.24 301c-2.75-2.14-.29-10.22 3-15 8.11-11.77 26.75-11.43 28.5-7.5 2.5 5.62-25.74 26.96-31.5 22.5zM1796.81 122.53c-18.62 10.58-4.1 55.07-19.8 61.88-9.56 4.14-20.26-10.06-31.35-4.12-6 3.2-10.29 11.29-8.25 16.5 3.76 9.61 26 1.39 33 11.55 5.3 7.73-2.52 19.92-22.28 71-4.65 12-8.21 21.64-4.12 25.58s14.57 1.68 21.45-3.3c26-18.81 4.38-81.77 21.45-88.28 6.6-2.52 11.63 6.2 23.1 3.3 11.32-2.86 20.56-14.92 18.15-20.63-2.89-6.86-20.52.48-26.4-7.43-9.8-13.18 28.08-48.47 18.15-62.7-4.06-5.88-15.72-7.54-23.1-3.35zM1883.28 214c-24.28-12.23-73.75 16.95-75.9 53.63-1.94 33.16 35.24 64.74 51.15 59.4 9.2-3.09 15.31-19.87 10.73-30.53-6.69-15.56-34.84-14.9-35.48-25.58-.28-4.68 4.92-8.47 5.78-9.08 16.55-11.63 45.9 18.29 57.75 9.9 10.94-7.74 6.16-47.53-14.03-57.74zm-.21 31.36c-2.1 5.41-13.38 6.41-21.33 4-9.44-2.86-18.43-11.82-16.67-16.67 2.32-6.39 24.29-8.37 34 2 .58.66 5.71 6.31 4 10.71zM2195.72 198.51c-19.44-7.66-48.44-3.11-55.5 12-5.17 11.07 1.22 28.27 9 30s11.74-12.65 24-13.5 26.56 12.08 25.5 22.5c-.79 7.79-10 12.46-21 18-24.28 12.27-36.62 7.42-45 18-7.15 9-8.39 25.5-1.5 31.5 14.9 13 65.16-25.33 73.5-15 3.82 4.73-5 14.93 0 21 4.38 5.35 17.2 4.76 24 0 23.28-16.3 12.1-106.72-33-124.5zM2146.22 308c-2.75-2.14-.29-10.22 3-15 8.11-11.77 26.75-11.43 28.5-7.5 2.5 5.62-25.72 26.96-31.5 22.5z"/><path class="cls-1" d="M2270.2 203.51c-5.37-1.82-13.51.87-16.5 6-9.36 16 40 41.5 37.5 73.5-3.13 39.83-84.12 57.31-79.5 79.5 1.79 8.59 15.56 13.83 25.5 15 70 8.27 164.06-160 138-187.49-7.59-8-27.11-5.92-37.5 3-22 18.91-1 66.86-13.5 72-9 3.68-33-15.54-42-39-3.78-9.86-4.78-20.02-12-22.51z"/></g></g></svg>